<?xml version="1.0" standalone="no"?>
<!DOCTYPE svg PUBLIC "-//W3C//DTD SVG 20010904//EN"
 "http://www.w3.org/TR/2001/REC-SVG-20010904/DTD/svg10.dtd">
<svg version="1.0" xmlns="http://www.w3.org/2000/svg"
 width="1080.000000pt" height="1080.000000pt" viewBox="0 0 1080.000000 1080.000000"
 preserveAspectRatio="xMidYMid meet">
<metadata>
Created by potrace 1.14, written by Peter Selinger 2001-2017
</metadata>
<g transform="translate(0.000000,1080.000000) scale(0.100000,-0.100000)"
fill="#000000" stroke="none">
<path d="M5035 9879 c-164 -17 -256 -31 -400 -60 -82 -16 -185 -43 -295 -76
-297 -90 -603 -237 -880 -424 -666 -450 -1157 -1144 -1354 -1914 -46 -177 -80
-364 -91 -503 l-6 -72 213 2 213 3 8 60 c14 109 28 199 37 240 128 587 388
1071 796 1479 266 266 621 504 944 631 52 20 104 41 115 46 26 11 112 39 150
50 17 4 48 13 70 19 400 113 940 133 1320 50 22 -5 65 -14 95 -21 30 -6 66
-15 80 -19 14 -4 45 -13 70 -20 852 -240 1561 -882 1890 -1710 100 -250 159
-496 196 -802 l6 -58 209 0 c160 0 209 3 210 13 12 156 -77 605 -170 862 -12
33 -29 80 -38 105 -48 138 -180 403 -282 566 -616 980 -1687 1571 -2833 1563
-106 -1 -229 -5 -273 -10z"/>
<path d="M1992 5603 l3 -918 545 0 c425 0 556 3 595 13 210 57 310 139 375
307 20 52 24 78 24 200 1 143 -2 161 -46 252 -40 82 -156 171 -248 189 -35 8
-40 30 -7 40 44 14 137 85 166 127 45 65 71 157 71 248 0 165 -55 281 -169
358 -142 95 -187 101 -804 101 l-507 0 2 -917z m925 513 c64 -30 86 -70 86
-159 0 -77 -19 -116 -70 -148 -36 -22 -48 -24 -252 -27 -171 -3 -215 -1 -222
10 -10 15 -12 332 -2 341 3 4 97 7 207 7 191 0 204 -1 253 -24z m-65 -627
c112 -12 139 -22 179 -66 34 -36 49 -83 49 -147 -1 -94 -32 -151 -105 -190
-37 -19 -58 -21 -274 -24 -187 -3 -236 -1 -242 10 -5 7 -9 99 -9 205 0 161 3
194 16 207 12 13 41 16 149 16 74 0 181 -5 237 -11z"/>
<path d="M5170 5600 l0 -920 200 0 200 0 0 181 c0 118 4 188 12 202 6 12 36
48 67 80 43 45 57 55 66 45 10 -11 164 -267 225 -373 10 -16 31 -52 47 -80
l29 -50 234 -3 c128 -1 237 1 241 5 8 8 0 23 -111 198 -32 50 -97 153 -145
230 -48 77 -108 171 -132 208 -64 99 -103 166 -103 179 0 13 32 48 231 258
178 188 210 225 202 234 -3 3 -109 6 -235 6 l-230 0 -26 -28 c-15 -15 -38 -41
-52 -57 -95 -113 -137 -162 -150 -175 -9 -8 -26 -28 -39 -45 -12 -16 -43 -52
-68 -78 -34 -36 -48 -45 -54 -35 -5 7 -9 221 -9 476 l0 462 -200 0 -200 0 0
-920z"/>
<path d="M6720 6504 c-74 -32 -110 -86 -110 -164 0 -115 74 -180 204 -180 73
0 108 12 149 49 75 68 75 202 0 261 -65 51 -170 65 -243 34z"/>
<path d="M7348 6363 c-16 -4 -18 -24 -20 -181 l-3 -177 -85 -5 -85 -5 -3 -152
-3 -152 88 -3 88 -3 6 -360 c3 -202 11 -378 17 -400 21 -79 26 -91 53 -130 57
-83 117 -117 239 -134 91 -12 283 3 318 25 22 14 22 19 20 157 l-3 142 -70 6
c-86 8 -119 20 -142 56 -16 24 -18 58 -21 327 -2 238 0 301 10 307 7 5 59 9
114 9 84 0 103 3 108 16 12 30 7 269 -6 282 -8 8 -48 12 -115 12 -57 0 -104 1
-105 3 -1 1 -4 83 -7 182 l-6 180 -185 1 c-102 1 -193 0 -202 -3z"/>
<path d="M8237 6363 c-4 -3 -7 -81 -7 -172 0 -91 -4 -171 -8 -178 -5 -7 -40
-13 -92 -15 l-85 -3 -3 -152 -3 -152 93 -3 93 -3 6 -380 c3 -215 10 -395 16
-415 53 -182 204 -256 463 -229 56 5 112 14 125 19 l25 10 0 150 0 150 -52 1
c-74 1 -127 19 -152 52 -20 27 -21 39 -21 335 l0 307 113 3 113 3 -3 152 -3
152 -105 3 c-68 2 -107 7 -112 15 -4 7 -8 90 -8 185 l0 172 -193 0 c-107 0
-197 -3 -200 -7z"/>
<path d="M3697 5993 c-4 -3 -7 -230 -7 -504 0 -459 1 -502 19 -558 39 -124
122 -220 229 -263 77 -31 267 -33 355 -4 75 25 166 88 214 150 l38 49 5 -89 5
-89 203 -3 202 -2 -2 657 -3 658 -200 0 -200 0 -5 -430 c-5 -454 -5 -456 -53
-515 -41 -52 -139 -86 -219 -77 -76 9 -119 36 -148 93 l-25 48 -3 435 c-2 329
-6 437 -15 443 -15 9 -381 11 -390 1z"/>
<path d="M6615 5988 c-3 -7 -4 -303 -3 -658 l3 -645 200 0 200 0 0 655 0 655
-198 3 c-152 2 -199 0 -202 -10z"/>
<path d="M8216 4210 c-8 -278 -30 -447 -87 -675 -28 -113 -77 -269 -101 -325
-10 -24 -22 -52 -39 -95 -21 -54 -138 -288 -173 -345 -239 -395 -510 -679
-914 -957 -18 -13 -35 -23 -37 -23 -2 0 -39 -21 -82 -48 -73 -45 -303 -162
-317 -162 -3 0 -28 -9 -54 -21 -80 -35 -85 -37 -167 -65 -341 -113 -769 -170
-1087 -145 -447 35 -771 122 -1138 307 -514 258 -950 674 -1225 1169 -69 124
-87 159 -128 255 -93 215 -175 498 -206 705 -26 180 -31 240 -31 381 0 117 -3
154 -14 163 -9 8 -74 11 -212 9 l-199 -3 -3 -130 c-4 -164 13 -363 48 -550 39
-211 127 -518 186 -654 9 -20 20 -45 24 -56 16 -39 161 -331 185 -373 89 -152
234 -353 371 -512 216 -252 498 -489 789 -666 278 -168 651 -321 945 -386 25
-5 63 -14 85 -19 113 -26 251 -45 430 -60 154 -12 535 -6 650 11 175 26 216
32 305 51 350 75 694 211 1010 399 332 197 688 516 939 843 62 81 204 296 251
382 62 113 170 333 170 347 0 5 9 27 19 51 19 41 85 231 102 292 58 216 83
339 108 530 17 127 31 428 20 441 -5 6 -50 14 -100 17 -124 9 -212 40 -267 95
-23 23 -44 42 -46 42 -1 0 -6 -99 -10 -220z"/>
</g>
</svg>
