<?xml version="1.0" encoding="UTF-8" standalone="no"?>
<!DOCTYPE svg PUBLIC "-//W3C//DTD SVG 1.1//EN" "http://www.w3.org/Graphics/SVG/1.1/DTD/svg11.dtd">
<svg width="100%" height="100%" viewBox="0 0 1080 1080" version="1.1" xmlns="http://www.w3.org/2000/svg" xmlns:xlink="http://www.w3.org/1999/xlink" xml:space="preserve" xmlns:serif="http://www.serif.com/" style="fill-rule:evenodd;clip-rule:evenodd;stroke-linejoin:round;stroke-miterlimit:2;">
    <g transform="matrix(0.688128,0,0,0.688128,66.5735,424.612)">
        <g>
            <g>
                <g>
                    <path d="M533.496,97.932C533.496,48.827 502.101,25.482 442.128,25.482L302.459,25.482L302.459,313.271L446.153,313.271C505.723,313.271 544.766,289.524 544.766,228.343C544.766,185.276 519.006,165.15 488.818,159.918L488.818,159.113C512.566,151.063 533.496,133.353 533.496,97.932ZM374.91,141.805L374.91,84.65L424.82,84.65C444.945,84.65 461.046,89.48 461.046,113.227C461.046,136.975 444.945,141.805 424.82,141.805L374.91,141.805ZM374.91,186.081L426.833,186.081C457.021,186.081 472.316,192.923 472.316,219.891C472.316,246.858 457.021,254.104 426.833,254.104L374.91,254.104L374.91,186.081ZM702.104,107.19L702.104,226.331C702.104,254.909 688.016,267.386 663.464,267.386C642.131,267.386 631.263,256.921 631.263,225.928L631.263,107.19L566.863,107.19L566.863,246.456C566.863,293.549 593.831,319.711 633.678,319.711C670.306,319.711 690.431,302.404 701.299,283.486L702.104,283.486L702.104,313.271L766.504,313.271L766.504,107.19L702.104,107.19ZM798.025,25.482L798.025,313.271L862.426,313.271L862.426,252.493L882.953,231.161L931.656,313.271L1008.13,313.271L926.826,184.47L999.679,107.19L922.801,107.19L862.426,176.823L862.426,25.482L798.025,25.482ZM1055.45,82.637C1073.57,82.637 1087.65,72.977 1087.65,54.06C1087.65,35.544 1073.57,25.482 1055.45,25.482C1037.34,25.482 1023.25,35.544 1023.25,54.06C1023.25,72.977 1037.34,82.637 1055.45,82.637ZM1023.25,107.19L1023.25,313.271L1087.65,313.271L1087.65,107.19L1023.25,107.19ZM1236.69,155.49L1236.69,107.19L1200.87,107.19L1200.87,49.632L1136.47,49.632L1136.47,107.19L1107.89,107.19L1107.89,155.49L1136.47,155.49L1136.47,245.651C1136.47,291.939 1149.75,316.894 1196.85,316.894C1214.96,316.894 1225.02,314.881 1236.69,312.466L1236.69,264.166C1209.32,264.166 1200.87,264.166 1200.87,240.821L1200.87,155.49L1236.69,155.49ZM1375.84,155.49L1375.84,107.19L1340.02,107.19L1340.02,49.632L1275.62,49.632L1275.62,107.19L1247.04,107.19L1247.04,155.49L1275.62,155.49L1275.62,245.651C1275.62,291.939 1288.9,316.894 1335.99,316.894C1354.11,316.894 1364.17,314.881 1375.84,312.466L1375.84,264.166C1348.47,264.166 1340.02,264.166 1340.02,240.821L1340.02,155.49L1375.84,155.49Z" style="fill:rgb(242,242,242);fill-rule:nonzero;"/>
                    <path d="M0,92.111C0,40.466 47.156,0 103.489,0C159.821,0 206.977,40.466 206.977,92.111L206.977,249.035C206.977,275.489 194.47,299.171 174.77,315.829C156.146,331.576 131.015,341.146 103.489,341.146C47.156,341.146 0,300.68 0,249.035L0,92.111ZM103.489,13.65C53.038,13.65 13.65,49.562 13.65,92.111L13.65,210.553L51.912,179.411C54.706,177.137 58.788,177.426 61.233,180.073L107.833,230.504L147.089,203.569C149.643,201.817 153.056,202.004 155.403,204.024L193.327,236.669L193.327,92.111C193.327,49.562 153.94,13.65 103.489,13.65ZM101.784,244.072L55.557,194.045L13.65,228.154L13.65,249.035C13.65,291.584 53.038,327.495 103.489,327.495C124.444,327.495 143.636,321.232 158.841,310.823L160.426,309.737L101.784,244.072ZM193.117,254.499L150.48,217.798L117.084,240.711L170.87,300.938L172.133,299.633C183.965,287.409 191.507,272.079 193.038,255.366L193.117,254.499Z" style="fill:rgb(242,242,242);"/>
                </g>
            </g>
        </g>
    </g>
</svg>
