<?xml version="1.0" encoding="UTF-8" standalone="no"?><!DOCTYPE svg PUBLIC "-//W3C//DTD SVG 1.1//EN" "http://www.w3.org/Graphics/SVG/1.1/DTD/svg11.dtd"><svg width="100%" height="100%" viewBox="0 0 15000 5000" version="1.1" xmlns="http://www.w3.org/2000/svg" xmlns:xlink="http://www.w3.org/1999/xlink" xml:space="preserve" xmlns:serif="http://www.serif.com/" style="fill-rule:evenodd;clip-rule:evenodd;stroke-linejoin:round;stroke-miterlimit:2;"><g id="White.svg"><g><g><path d="M5834.93,1503.73c-0,-529.471 -338.513,-781.186 -985.166,-781.186l-1505.97,0l0,3103.05l1549.37,-0c642.305,-0 1063.28,-256.049 1063.28,-915.728c-0,-464.365 -277.755,-681.371 -603.255,-737.785l0,-8.68c256.062,-86.798 481.737,-277.754 481.737,-659.676l-0,0.002Zm-1709.94,473.055l0,-616.268l538.149,0c216.995,0 390.603,52.08 390.603,308.129c0,256.059 -173.608,308.139 -390.603,308.139l-538.149,0Zm0,477.402l559.854,0c325.498,0 490.416,73.773 490.416,364.551c-0,290.77 -164.918,368.898 -490.416,368.898l-559.854,0l0,-733.449Zm3527.94,-850.634l-0,1284.62c-0,308.14 -151.903,442.671 -416.631,442.671c-230.022,-0 -347.205,-112.839 -347.205,-447.018l0,-1280.28l-694.385,-0l-0,1501.62c-0,507.774 290.779,789.863 720.425,789.863c394.938,-0 611.933,-186.611 729.117,-390.591l8.679,0l-0,321.153l694.387,-0l0,-2222.04l-694.387,0l-0,-0.01Zm1034.26,-881.011l0,3103.06l694.398,-0l0,-655.332l221.33,-230.011l525.135,885.343l824.573,-0l-876.653,-1388.78l785.531,-833.263l-828.929,-0l-650.987,750.809l0,-1631.82l-694.398,-0Zm2775.66,616.27c195.377,-0 347.195,-104.157 347.195,-308.129c-0,-199.645 -151.818,-308.139 -347.195,-308.139c-195.269,0 -347.192,108.494 -347.192,308.139c-0,203.972 151.923,308.129 347.192,308.129Zm-347.192,264.741l-0,2222.03l694.387,0l-0,-2222.03l-694.387,-0Zm2301.4,520.79l-0,-520.79l-386.225,-0l0,-620.613l-694.387,0l-0,620.613l-308.16,-0l-0,520.79l308.16,-0l-0,972.15c-0,499.097 143.189,768.17 651.042,768.17c195.269,-0 303.739,-21.704 429.57,-47.743l-0,-520.79c-295.115,-0 -386.225,-0 -386.225,-251.715l0,-920.072l386.225,-0Zm1500.37,-0l-0,-520.79l-386.225,-0l0,-620.613l-694.385,0l-0,620.613l-308.162,-0l-0,520.79l308.162,-0l-0,972.15c-0,499.097 143.189,768.17 650.932,768.17c195.377,-0 303.849,-21.704 429.678,-47.743l-0,-520.79c-295.113,-0 -386.225,-0 -386.225,-251.715l0,-920.072l386.225,-0Z" style="fill:#141f26;fill-rule:nonzero;stroke:#141f26;stroke-width:1.88px;"/><path d="M82.562,1440.94c0,-556.857 508.453,-993.177 1115.86,-993.177c607.394,0 1115.85,436.32 1115.85,993.177l0,1692.02c0,285.239 -134.855,540.588 -347.269,720.201c-200.811,169.79 -471.783,272.978 -768.58,272.978c-607.405,-0 -1115.86,-436.32 -1115.86,-993.179l0,-1692.02Zm1115.86,-845.996c-543.982,0 -968.679,387.217 -968.679,845.996l0,1277.09l412.557,-335.784c30.124,-24.519 74.138,-21.403 100.501,7.137l502.461,543.767l423.273,-290.423c27.539,-18.89 64.338,-16.875 89.646,4.905l408.911,351.992l0,-1558.68c0,-458.779 -424.688,-845.996 -968.67,-845.996Zm-18.382,2484.51l-498.44,-539.411l-451.857,367.777l0,225.146c0,458.78 424.697,845.987 968.679,845.987c225.946,-0 432.881,-67.53 596.828,-179.764l17.09,-11.71l-632.3,-708.025Zm984.787,112.428l-459.729,-395.725l-360.09,247.057l579.944,649.392l13.618,-14.072c127.576,-131.804 208.898,-297.099 225.406,-477.304l0.851,-9.348Z" style="fill:#141f26;stroke:#141f26;stroke-width:1.88px;"/></g></g></g><g id="bukitt-logo-rectangle.svg"></g></svg>