<?xml version="1.0" encoding="UTF-8" standalone="no"?><!DOCTYPE svg PUBLIC "-//W3C//DTD SVG 1.1//EN" "http://www.w3.org/Graphics/SVG/1.1/DTD/svg11.dtd"><svg width="100%" height="100%" viewBox="0 0 8000 4500" version="1.1" xmlns="http://www.w3.org/2000/svg" xmlns:xlink="http://www.w3.org/1999/xlink" xml:space="preserve" xmlns:serif="http://www.serif.com/" style="fill-rule:evenodd;clip-rule:evenodd;stroke-linejoin:round;stroke-miterlimit:2;"><g id="White.svg"><g><g><path d="M3208.73,1877.56c0,-250.301 -160.028,-369.296 -465.725,-369.296l-711.927,0l0,1466.93l732.444,0c303.642,0 502.654,-121.044 502.654,-432.899c0,-219.523 -131.305,-322.11 -285.181,-348.779l0,-4.103c121.05,-41.033 227.735,-131.305 227.735,-311.854Zm-808.351,223.631l-0,-291.333l254.403,-0c102.582,-0 184.653,24.62 184.653,145.664c-0,121.049 -82.071,145.669 -184.653,145.669l-254.403,-0Zm-0,225.686l264.664,-0c153.875,-0 231.838,34.875 231.838,172.337c-0,137.458 -77.963,174.392 -231.838,174.392l-264.664,0l-0,-346.729Zm1667.79,-402.127l0,607.291c0,145.669 -71.81,209.267 -196.957,209.267c-108.74,0 -164.137,-53.343 -164.137,-211.322l0,-605.236l-328.262,-0l-0,709.873c-0,240.044 137.462,373.398 340.572,373.398c186.702,0 289.284,-88.218 344.681,-184.647l4.103,-0l0,151.821l328.263,0l-0,-1050.44l-328.263,-0Zm488.933,-416.486l0,1466.93l328.268,0l-0,-309.8l104.631,-108.735l248.251,418.535l389.807,0l-414.427,-656.53l371.35,-393.915l-391.866,-0l-307.746,354.936l-0,-771.422l-328.268,0Zm1312.16,291.333c92.362,0 164.132,-49.239 164.132,-145.664c-0,-94.38 -71.77,-145.669 -164.132,-145.669c-92.311,0 -164.131,51.289 -164.131,145.669c0,96.425 71.82,145.664 164.131,145.664Zm-164.131,125.153l0,1050.44l328.263,0l-0,-1050.44l-328.263,-0Zm1087.96,246.197l-0,-246.197l-182.583,-0l-0,-293.387l-328.263,-0l0,293.387l-145.679,-0l-0,246.197l145.679,-0l0,459.572c0,235.942 67.691,363.143 307.772,363.143c92.311,0 143.589,-10.26 203.074,-22.57l-0,-246.197c-139.512,-0 -182.583,-0 -182.583,-118.995l-0,-434.953l182.583,-0Zm709.281,-0l0,-246.197l-182.583,-0l0,-293.387l-328.262,-0l-0,293.387l-145.68,-0l0,246.197l145.68,-0l-0,459.572c-0,235.942 67.691,363.143 307.72,363.143c92.362,0 143.641,-10.26 203.125,-22.57l0,-246.197c-139.511,-0 -182.583,-0 -182.583,-118.995l0,-434.953l182.583,-0Z" style="fill:#141f26;fill-rule:nonzero;"/><path d="M489.367,1847.88c-0,-263.247 240.365,-469.512 527.508,-469.512c287.138,0 527.504,206.265 527.504,469.512l0,799.88c0,134.843 -63.751,255.556 -164.167,340.466c-94.931,80.266 -223.03,129.047 -363.337,129.047c-287.143,-0 -527.508,-206.265 -527.508,-469.513l-0,-799.88Zm527.508,-399.934c-257.161,-0 -457.931,183.052 -457.931,399.934l0,603.728l195.031,-158.738c14.241,-11.591 35.048,-10.118 47.511,3.374l237.532,257.059l200.097,-137.294c13.019,-8.93 30.415,-7.977 42.379,2.319l193.308,166.4l-0,-736.848c-0,-216.882 -200.766,-399.934 -457.927,-399.934Zm-8.69,1174.52l-235.631,-255l-213.61,173.862l0,106.435c0,216.883 200.77,399.93 457.931,399.93c106.813,0 204.639,-31.924 282.143,-84.981l8.079,-5.536l-298.912,-334.71Zm465.546,53.149l-217.331,-187.074l-170.228,116.793l274.161,306.992l6.438,-6.652c60.31,-62.309 98.754,-140.45 106.558,-225.64l0.402,-4.419Z" style="fill:#141f26;"/></g></g></g><g id="dark-blue.svg"></g></svg>