<?xml version="1.0" encoding="UTF-8" standalone="no"?><!DOCTYPE svg PUBLIC "-//W3C//DTD SVG 1.1//EN" "http://www.w3.org/Graphics/SVG/1.1/DTD/svg11.dtd"><svg width="100%" height="100%" viewBox="0 0 8000 4500" version="1.1" xmlns="http://www.w3.org/2000/svg" xmlns:xlink="http://www.w3.org/1999/xlink" xml:space="preserve" xmlns:serif="http://www.serif.com/" style="fill-rule:evenodd;clip-rule:evenodd;stroke-linejoin:round;stroke-miterlimit:2;"><g><g><g><g><path d="M3145.15,1864.05c-0,-271.705 -173.713,-400.876 -505.552,-400.876l-772.808,0l0,1592.38l795.079,0c329.609,0 545.639,-131.395 545.639,-469.918c0,-238.296 -142.533,-349.656 -309.568,-378.605l0,-4.454c131.401,-44.542 247.21,-142.534 247.21,-338.523Zm-877.478,242.755l-0,-316.246l276.159,-0c111.354,-0 200.443,26.725 200.443,158.12c0,131.401 -89.089,158.126 -200.443,158.126l-276.159,0Zm-0,244.986l287.297,-0c167.034,-0 251.664,37.857 251.664,187.075c-0,149.212 -84.63,189.305 -251.664,189.305l-287.297,0l-0,-376.38Zm1810.41,-436.515l0,659.223c0,158.126 -77.951,227.163 -213.8,227.163c-118.039,0 -178.173,-57.904 -178.173,-229.392l0,-656.994l-356.334,-0l0,770.578c0,260.572 149.218,405.33 369.697,405.33c202.667,-0 314.022,-95.762 374.156,-200.438l4.454,-0l0,164.804l356.334,0l0,-1140.27l-356.334,-0Zm530.744,-452.102l0,1592.38l356.34,0l-0,-336.293l113.578,-118.033l269.481,454.326l423.141,0l-449.866,-712.673l403.105,-427.601l-425.376,-0l-334.063,385.289l-0,-837.391l-356.34,0Zm1424.37,316.247c100.261,-0 178.167,-53.45 178.167,-158.121c0,-102.451 -77.906,-158.126 -178.167,-158.126c-100.205,0 -178.167,55.675 -178.167,158.126c0,104.671 77.962,158.121 178.167,158.121Zm-178.167,135.855l0,1140.27l356.334,0l0,-1140.27l-356.334,-0Zm1180.99,267.25l-0,-267.25l-198.197,-0l-0,-318.476l-356.334,-0l-0,318.476l-158.137,-0l-0,267.25l158.137,0l-0,498.874c-0,256.117 73.48,394.197 334.091,394.197c100.205,-0 155.868,-11.138 220.44,-24.501l-0,-267.25c-151.442,-0 -198.197,-0 -198.197,-129.171l-0,-472.149l198.197,0Zm769.936,0l-0,-267.25l-198.197,-0l0,-318.476l-356.334,-0l-0,318.476l-158.137,-0l-0,267.25l158.137,0l-0,498.874c-0,256.117 73.48,394.197 334.035,394.197c100.261,-0 155.924,-11.138 220.496,-24.501l-0,-267.25c-151.442,-0 -198.197,-0 -198.197,-129.171l0,-472.149l198.197,0Z" style="fill:#f2f2f2;fill-rule:nonzero;"/><path d="M193.246,1831.85c0,-285.759 260.921,-509.663 572.619,-509.663c311.693,-0 572.613,223.904 572.613,509.663l0,868.282c0,146.373 -69.203,277.409 -178.205,369.58c-103.05,87.13 -242.103,140.083 -394.408,140.083c-311.698,-0 -572.619,-223.904 -572.619,-509.663l0,-868.282Zm572.619,-434.136c-279.152,0 -497.091,198.706 -497.091,434.136l-0,655.356l211.708,-172.313c15.46,-12.583 38.046,-10.984 51.575,3.662l257.844,279.042l217.209,-149.035c14.131,-9.694 33.016,-8.659 46.002,2.518l209.839,180.629l0,-799.859c0,-235.43 -217.934,-434.136 -497.086,-434.136Zm-9.434,1274.96l-255.78,-276.807l-231.877,188.73l-0,115.538c-0,235.429 217.939,434.13 497.091,434.13c115.947,-0 222.139,-34.654 306.27,-92.249l8.77,-6.009l-324.474,-363.333Zm505.358,57.694l-235.916,-203.072l-184.785,126.781l297.605,333.244l6.989,-7.221c65.468,-67.637 107.199,-152.46 115.67,-244.935l0.437,-4.797Z" style="fill:#f2f2f2;"/></g></g></g></g><g id="White.svg"></g></svg>