<?xml version="1.0" encoding="UTF-8" standalone="no"?><!DOCTYPE svg PUBLIC "-//W3C//DTD SVG 1.1//EN" "http://www.w3.org/Graphics/SVG/1.1/DTD/svg11.dtd"><svg width="100%" height="100%" viewBox="0 0 4500 4500" version="1.1" xmlns="http://www.w3.org/2000/svg" xmlns:xlink="http://www.w3.org/1999/xlink" xml:space="preserve" xmlns:serif="http://www.serif.com/" style="fill-rule:evenodd;clip-rule:evenodd;stroke-linejoin:round;stroke-miterlimit:2;"><g id="Black.svg"><g><g><g id="Black.svg1" serif:id="Black.svg"><g><path d="M1288.23,1922.13c-0,-156.775 -100.234,-231.307 -291.716,-231.307l-445.917,0l-0,918.819l458.768,-0c190.19,-0 314.843,-75.814 314.843,-271.142c0,-137.505 -82.244,-201.759 -178.621,-218.467l0,-2.574c75.814,-25.702 142.643,-82.244 142.643,-195.329Zm-506.316,140.079l-0,-182.488l159.34,0c64.255,0 115.658,15.425 115.658,91.249c0,75.814 -51.403,91.239 -115.658,91.239l-159.34,0Zm-0,141.351l165.77,-0c96.377,-0 145.217,21.845 145.217,107.946c0,86.1 -48.84,109.238 -145.217,109.238l-165.77,-0l-0,-217.184Zm1044.62,-251.871l-0,380.38c-0,91.239 -44.974,131.074 -123.361,131.074c-68.112,-0 -102.808,-33.404 -102.808,-132.356l-0,-379.098l-205.605,-0l-0,444.635c-0,150.355 86.09,233.882 213.318,233.882c116.94,-0 181.195,-55.261 215.892,-115.659l2.564,-0l-0,95.095l205.615,-0l0,-657.953l-205.615,-0Zm306.256,-260.866l-0,918.819l205.605,-0l0,-194.047l65.537,-68.101l155.494,262.148l244.168,-0l-259.584,-411.221l232.59,-246.732l-245.44,-0l-192.765,222.312l0,-483.178l-205.605,0Zm821.892,182.478c57.824,-0 102.797,-30.84 102.797,-91.239c0,-59.116 -44.973,-91.239 -102.797,-91.239c-57.835,0 -102.808,32.123 -102.808,91.239c0,60.399 44.973,91.239 102.808,91.239Zm-102.808,78.388l0,657.953l205.605,-0l0,-657.953l-205.605,-0Zm681.447,154.211l0,-154.211l-114.376,-0l-0,-183.76l-205.606,0l0,183.76l-91.239,-0l0,154.211l91.239,0l0,287.85c0,147.791 42.409,227.461 192.755,227.461c57.834,-0 89.956,-6.431 127.227,-14.133l0,-154.212c-87.382,0 -114.376,0 -114.376,-74.531l-0,-272.435l114.376,0Zm444.249,0l-0,-154.211l-114.367,-0l0,-183.76l-205.615,0l-0,183.76l-91.239,-0l0,154.211l91.239,0l-0,287.85c-0,147.791 42.409,227.461 192.764,227.461c57.825,-0 89.957,-6.431 127.218,-14.133l-0,-154.212c-87.383,0 -114.367,0 -114.367,-74.531l0,-272.435l114.367,0Z" style="fill:#141f26;fill-rule:nonzero;"/><path d="M2210.61,4271.61c-797.33,-0 -1443.69,-646.374 -1443.69,-1443.7l0,-47.334l-213.013,-0l0,47.334c0,914.972 741.734,1656.71 1656.71,1656.71c914.972,0 1656.71,-741.734 1656.71,-1656.71l0,-23.667c0,-0 -189.335,11.833 -213.002,-94.668l-0,118.335c-0,797.33 -646.375,1443.7 -1443.7,1443.7Z" style="fill:#141f26;fill-rule:nonzero;"/><path d="M3650.44,1561.72l213.511,0c-2.025,-31.807 -4.935,-63.38 -8.72,-94.668c-99.277,-820.101 -797.736,-1455.54 -1644.62,-1455.54c-855.002,0 -1558.73,647.697 -1647.31,1479.2l214.407,0c87.494,-713.6 695.661,-1266.2 1432.9,-1266.2c729.066,-0 1331.91,540.422 1429.79,1242.53c4.355,31.248 7.713,62.81 10.033,94.668Z" style="fill:#141f26;"/><path d="M777.715,1490.71l-214.407,0c-1.679,15.711 -3.124,31.492 -4.355,47.334l213.756,0c1.414,-15.852 3.083,-31.634 5.006,-47.334Z" style="fill:#141f26;fill-rule:nonzero;"/></g></g></g></g></g><g id="dark-blue.svg"></g></svg>