<?xml version="1.0" encoding="UTF-8" standalone="no"?><!DOCTYPE svg PUBLIC "-//W3C//DTD SVG 1.1//EN" "http://www.w3.org/Graphics/SVG/1.1/DTD/svg11.dtd"><svg width="100%" height="100%" viewBox="0 0 4500 4500" version="1.1" xmlns="http://www.w3.org/2000/svg" xmlns:xlink="http://www.w3.org/1999/xlink" xml:space="preserve" xmlns:serif="http://www.serif.com/" style="fill-rule:evenodd;clip-rule:evenodd;stroke-linejoin:round;stroke-miterlimit:2;"><g><g id="Black.svg"><g><path d="M1280.71,1926.26c-0,-155.722 -99.56,-229.752 -289.755,-229.752l-442.92,-0l0,912.641l455.685,0c188.911,0 312.727,-75.303 312.727,-269.319c-0,-136.58 -81.692,-200.403 -177.421,-216.998l0,-2.557c75.304,-25.529 141.684,-81.691 141.684,-194.015Zm-502.912,139.137l-0,-181.261l158.268,-0c63.823,-0 114.882,15.321 114.882,90.635c-0,75.304 -51.059,90.626 -114.882,90.626l-158.268,-0Zm-0,140.4l164.656,-0c95.729,-0 144.24,21.699 144.24,107.22c0,85.522 -48.511,108.504 -144.24,108.504l-164.656,0l-0,-215.724Zm1037.6,-250.178l0,377.824c0,90.625 -44.671,130.192 -122.532,130.192c-67.653,0 -102.116,-33.179 -102.116,-131.466l-0,-376.55l-204.223,0l-0,441.647c-0,149.344 85.511,232.309 211.883,232.309c116.155,-0 179.978,-54.889 214.441,-114.881l2.547,-0l0,94.455l204.233,0l0,-653.53l-204.233,0Zm304.197,-259.111l0,912.641l204.223,0l0,-192.742l65.096,-67.643l154.449,260.385l242.527,0l-257.839,-408.456l231.026,-245.074l-243.79,0l-191.469,220.818l0,-479.929l-204.223,-0Zm816.367,181.251c57.435,-0 102.106,-30.633 102.106,-90.626c0,-58.719 -44.671,-90.625 -102.106,-90.625c-57.446,-0 -102.117,31.906 -102.117,90.625c0,59.993 44.671,90.626 102.117,90.626Zm-102.117,77.86l0,653.53l204.223,0l0,-653.53l-204.223,0Zm676.866,153.175l0,-153.175l-113.607,0l-0,-182.524l-204.223,0l-0,182.524l-90.626,0l0,153.175l90.626,0l-0,285.915c-0,146.797 42.124,225.932 191.458,225.932c57.446,-0 89.352,-6.388 126.372,-14.038l0,-153.175c-86.795,-0 -113.607,-0 -113.607,-74.031l-0,-270.603l113.607,0Zm441.263,0l-0,-153.175l-113.598,0l-0,-182.524l-204.233,0l-0,182.524l-90.626,0l0,153.175l90.626,0l-0,285.915c-0,146.797 42.124,225.932 191.468,225.932c57.436,-0 89.352,-6.388 126.363,-14.038l-0,-153.175c-86.796,-0 -113.598,-0 -113.598,-74.031l-0,-270.603l113.598,0Z" style="fill:#f2f2f2;fill-rule:nonzero;"/><path d="M2196.89,4259.94c-791.97,0 -1433.99,-642.028 -1433.99,-1434l-0,-47.016l-211.581,0l0,47.016c0,908.822 736.747,1645.57 1645.57,1645.57c908.822,-0 1645.57,-736.747 1645.57,-1645.57l-0,-23.508c-0,0 -188.063,11.754 -211.571,-94.031l0,117.539c0,791.97 -642.028,1434 -1434,1434Z" style="fill:#f2f2f2;fill-rule:nonzero;"/><path d="M3627.03,1568.27l212.076,-0c-2.012,-31.593 -4.902,-62.954 -8.662,-94.032c-98.609,-814.588 -792.373,-1445.75 -1633.56,-1445.75c-849.253,0 -1548.25,643.343 -1636.23,1469.26l212.965,0c86.906,-708.803 690.985,-1257.69 1423.27,-1257.69c724.165,-0 1322.96,536.789 1420.18,1234.18c4.325,31.037 7.66,62.388 9.965,94.032Z" style="fill:#f2f2f2;"/><path d="M773.62,1497.74l-212.965,0c-1.668,15.605 -3.103,31.28 -4.326,47.016l212.318,-0c1.405,-15.746 3.063,-31.421 4.973,-47.016Z" style="fill:#f2f2f2;fill-rule:nonzero;"/></g></g></g></svg>