<?xml version="1.0" encoding="UTF-8" standalone="no"?><!DOCTYPE svg PUBLIC "-//W3C//DTD SVG 1.1//EN" "http://www.w3.org/Graphics/SVG/1.1/DTD/svg11.dtd"><svg width="100%" height="100%" viewBox="0 0 4500 4500" version="1.1" xmlns="http://www.w3.org/2000/svg" xmlns:xlink="http://www.w3.org/1999/xlink" xml:space="preserve" xmlns:serif="http://www.serif.com/" style="fill-rule:evenodd;clip-rule:evenodd;stroke-linejoin:round;stroke-miterlimit:2;"><g id="Black.svg"><g><g><g id="Black.svg1" serif:id="Black.svg"><g><path d="M1282.04,1926.71c0,-155.507 -99.422,-229.436 -289.355,-229.436l-442.31,0l0,911.385l455.057,-0c188.651,-0 312.296,-75.2 312.296,-268.949c-0,-136.391 -81.579,-200.126 -177.176,-216.699l-0,-2.553c75.2,-25.494 141.488,-81.579 141.488,-193.748Zm-502.219,138.945l-0,-181.011l158.05,-0c63.735,-0 114.723,15.3 114.723,90.51c0,75.201 -50.988,90.501 -114.723,90.501l-158.05,0Zm-0,140.207l164.429,-0c95.597,-0 144.042,21.669 144.042,107.073c-0,85.403 -48.445,108.354 -144.042,108.354l-164.429,0l-0,-215.427Zm1036.17,-249.833l-0,377.303c-0,90.5 -44.61,130.013 -122.363,130.013c-67.56,0 -101.976,-33.134 -101.976,-131.285l-0,-376.031l-203.942,-0l0,441.038c0,149.139 85.394,231.989 211.592,231.989c115.995,-0 179.73,-54.813 214.145,-114.723l2.544,0l-0,94.326l203.952,-0l-0,-652.63l-203.952,-0Zm303.778,-258.755l-0,911.385l203.942,-0l-0,-192.477l65.006,-67.55l154.236,260.027l242.193,-0l-257.484,-407.894l230.708,-244.736l-243.455,-0l-191.204,220.514l-0,-479.269l-203.942,0Zm815.242,181.001c57.356,0 101.966,-30.59 101.966,-90.5c-0,-58.638 -44.61,-90.501 -101.966,-90.501c-57.367,0 -101.976,31.863 -101.976,90.501c0,59.91 44.609,90.5 101.976,90.5Zm-101.976,77.754l0,652.63l203.942,-0l-0,-652.63l-203.942,-0Zm675.934,152.964l-0,-152.964l-113.452,-0l0,-182.273l-203.941,0l-0,182.273l-90.501,-0l0,152.964l90.501,-0l-0,285.52c-0,146.596 42.066,225.621 191.194,225.621c57.367,0 89.229,-6.379 126.199,-14.019l-0,-152.964c-86.676,0 -113.452,0 -113.452,-73.928l0,-270.23l113.452,-0Zm440.654,-0l-0,-152.964l-113.441,-0l-0,-182.273l-203.952,0l-0,182.273l-90.501,-0l0,152.964l90.501,-0l-0,285.52c-0,146.596 42.066,225.621 191.205,225.621c57.356,0 89.229,-6.379 126.188,-14.019l-0,-152.964c-86.676,0 -113.441,0 -113.441,-73.928l-0,-270.23l113.441,-0Z" style="fill:#141f26;fill-rule:nonzero;"/><path d="M2196.96,4257.18c-790.878,-0 -1432.01,-641.145 -1432.01,-1432.02l0,-46.951l-211.289,-0l0,46.951c0,907.569 735.733,1643.3 1643.3,1643.3c907.57,-0 1643.3,-735.733 1643.3,-1643.3l0,-23.476c0,0 -187.803,11.738 -211.279,-93.902l0,117.378c0,790.878 -641.144,1432.02 -1432.02,1432.02Z" style="fill:#141f26;fill-rule:nonzero;"/><path d="M3625.14,1569.21l211.784,-0c-2.009,-31.55 -4.895,-62.867 -8.65,-93.902c-98.474,-813.466 -791.282,-1443.76 -1631.31,-1443.76c-848.083,0 -1546.12,642.457 -1633.98,1467.24l212.672,0c86.786,-707.826 690.033,-1255.96 1421.3,-1255.96c723.167,0 1321.13,536.05 1418.23,1232.48c4.319,30.994 7.65,62.302 9.951,93.902Z" style="fill:#141f26;"/><path d="M775.654,1498.78l-212.672,0c-1.666,15.583 -3.099,31.237 -4.32,46.951l212.026,0c1.403,-15.724 3.058,-31.378 4.966,-46.951Z" style="fill:#141f26;fill-rule:nonzero;"/></g></g></g></g></g></svg>